<svg xmlns:xlink="http://www.w3.org/1999/xlink" xmlns="http://www.w3.org/2000/svg" width="24" height="24" role="presentation" focusable="false" viewBox="0 0 24 24"><path fill-rule="evenodd" clip-rule="evenodd" d="M7 5C7 3.89543 7.89543 3 9 3H15C16.1046 3 17 3.89543 17 5H7ZM7 6C5.89543 6 5 6.89543 5 8H19C19 6.89543 18.1046 6 17 6H7ZM5 11H19V19H5L5 11ZM3 11C3 9.89543 3.89543 9 5 9H19C20.1046 9 21 9.89543 21 11V19C21 20.1046 20.1046 21 19 21H5C3.89543 21 3 20.1046 3 19V11ZM15 15H9V14C9 13.4477 8.55228 13 8 13C7.44772 13 7 13.4477 7 14V15V16C7 16.5523 7.44772 17 8 17H16C16.5523 17 17 16.5523 17 16V15V14C17 13.4477 16.5523 13 16 13C15.4477 13 15 13.4477 15 14V15Z" fill="#FFFFFF"></path></svg>