<svg xmlns:xlink="http://www.w3.org/1999/xlink" xmlns="http://www.w3.org/2000/svg" width="24" height="24" role="presentation" focusable="false" viewBox="0 0 24 24"><path fill-rule="evenodd" clip-rule="evenodd" d="M12 3C9.79536 3 8 4.79192 8 7.00237V9H7C5.89543 9 5 9.89543 5 11V19C5 20.1046 5.89543 21 7 21H17C18.1046 21 19 20.1046 19 19V11C19 9.89543 18.1046 9 17 9H16V7.00237C16 4.79182 14.2091 3 12 3ZM14 11H16H17V19H7V11H8H10H14ZM14 9V7.00237C14 5.89617 13.1043 5 12 5C10.8983 5 10 5.89813 10 7.00237V9H14ZM14 15C14 16.1046 13.1046 17 12 17C10.8954 17 10 16.1046 10 15C10 13.8954 10.8954 13 12 13C13.1046 13 14 13.8954 14 15Z" fill="#A86CC1"></path></svg>