<svg xmlns:xlink="http://www.w3.org/1999/xlink" xmlns="http://www.w3.org/2000/svg" width="24" height="24" role="presentation" focusable="false" viewBox="0 0 24 24"><path fill-rule="evenodd" clip-rule="evenodd" d="M11 18.9291V18C11 17.4477 10.5523 17 10 17C9.44772 17 9 16.5523 9 16V15L5.06227 11.0623C5.0212 11.369 5 11.682 5 12C5 15.5265 7.60771 18.4439 11 18.9291ZM14.9929 5.67024C14.9065 6.69513 14.0472 7.5 13 7.5H11V9C11 9.55228 10.5523 10 10 10H8V12H13C14.1046 12 15 12.8954 15 14V16H16C16.5198 16 16.9469 16.3966 16.9954 16.9037C18.2353 15.6407 19 13.9097 19 12C19 9.20479 17.3617 6.79224 14.9929 5.67024ZM21 12C21 16.9706 16.9706 21 12 21C7.02944 21 3 16.9706 3 12C3 7.02944 7.02944 3 12 3C16.9706 3 21 7.02944 21 12Z" fill="#6B778C"></path></svg>