<svg xmlns:xlink="http://www.w3.org/1999/xlink" xmlns="http://www.w3.org/2000/svg" width="24" height="24" role="presentation" focusable="false" viewBox="0 0 24 24"><path fill-rule="evenodd" clip-rule="evenodd" d="M12.5048 5.67168C11.9099 5.32669 11.2374 5.10082 10.5198 5.0267C11.2076 3.81639 12.5085 3 14 3C16.2092 3 18 4.79086 18 7C18 7.99184 17.639 8.89936 17.0413 9.59835C19.9512 10.7953 22 13.6584 22 17C22 17.5523 21.5523 18 21 18H18.777C18.6179 17.2987 18.3768 16.6285 18.0645 16H19.917C19.4892 13.4497 17.4525 11.445 14.8863 11.065C14.9608 10.7218 15 10.3655 15 10C15 9.58908 14.9504 9.18974 14.857 8.80763C15.5328 8.48668 16 7.79791 16 7C16 5.89543 15.1046 5 14 5C13.4053 5 12.8711 5.25961 12.5048 5.67168ZM6 10C6 10.9918 6.36099 11.8994 6.95875 12.5984C4.04879 13.7953 2 16.6584 2 20C2 20.5523 2.44772 21 3 21H17C17.5523 21 18 20.5523 18 20C18 16.6584 15.9512 13.7953 13.0412 12.5984C13.639 11.8994 14 10.9918 14 10C14 7.79086 12.2091 6 10 6C7.79086 6 6 7.79086 6 10ZM10 12C11.1046 12 12 11.1046 12 10C12 8.89543 11.1046 8 10 8C8.89543 8 8 8.89543 8 10C8 11.1046 8.89543 12 10 12ZM9.99999 14C12.973 14 15.441 16.1623 15.917 19H4.08295C4.55902 16.1623 7.02699 14 9.99999 14Z" fill="#42526E"></path></svg>