<?xml version="1.0"?>
<svg xmlns="http://www.w3.org/2000/svg" xmlns:xlink="http://www.w3.org/1999/xlink" xmlns:svgjs="http://svgjs.com/svgjs" version="1.1" width="512" height="512" x="0" y="0" viewBox="0 0 24 24" style="enable-background:new 0 0 512 512" xml:space="preserve" class=""><g><g xmlns="http://www.w3.org/2000/svg"><path d="m22.5 9h-21c-.827 0-1.5-.673-1.5-1.5v-6c0-.827.673-1.5 1.5-1.5h21c.827 0 1.5.673 1.5 1.5v6c0 .827-.673 1.5-1.5 1.5zm-21-8c-.275 0-.5.224-.5.5v6c0 .276.225.5.5.5h21c.275 0 .5-.224.5-.5v-6c0-.276-.225-.5-.5-.5z" fill="#6b778c" data-original="#000000" style="" class=""/></g><g xmlns="http://www.w3.org/2000/svg"><path d="m9.5 24h-8c-.827 0-1.5-.673-1.5-1.5v-10c0-.827.673-1.5 1.5-1.5h8c.827 0 1.5.673 1.5 1.5v10c0 .827-.673 1.5-1.5 1.5zm-8-12c-.275 0-.5.224-.5.5v10c0 .276.225.5.5.5h8c.275 0 .5-.224.5-.5v-10c0-.276-.225-.5-.5-.5z" fill="#6b778c" data-original="#000000" style="" class=""/></g><g xmlns="http://www.w3.org/2000/svg"><path d="m23.5 12h-10c-.276 0-.5-.224-.5-.5s.224-.5.5-.5h10c.276 0 .5.224.5.5s-.224.5-.5.5z" fill="#6b778c" data-original="#000000" style="" class=""/></g><g xmlns="http://www.w3.org/2000/svg"><path d="m23.5 15h-10c-.276 0-.5-.224-.5-.5s.224-.5.5-.5h10c.276 0 .5.224.5.5s-.224.5-.5.5z" fill="#6b778c" data-original="#000000" style="" class=""/></g><g xmlns="http://www.w3.org/2000/svg"><path d="m23.5 18h-10c-.276 0-.5-.224-.5-.5s.224-.5.5-.5h10c.276 0 .5.224.5.5s-.224.5-.5.5z" fill="#6b778c" data-original="#000000" style="" class=""/></g><g xmlns="http://www.w3.org/2000/svg"><path d="m23.5 21h-10c-.276 0-.5-.224-.5-.5s.224-.5.5-.5h10c.276 0 .5.224.5.5s-.224.5-.5.5z" fill="#6b778c" data-original="#000000" style="" class=""/></g><g xmlns="http://www.w3.org/2000/svg"><path d="m23.5 24h-10c-.276 0-.5-.224-.5-.5s.224-.5.5-.5h10c.276 0 .5.224.5.5s-.224.5-.5.5z" fill="#6b778c" data-original="#000000" style="" class=""/></g></g></svg>
