<?xml version="1.0"?>
<svg xmlns="http://www.w3.org/2000/svg" xmlns:xlink="http://www.w3.org/1999/xlink" xmlns:svgjs="http://svgjs.com/svgjs" version="1.1" width="512" height="512" x="0" y="0" viewBox="0 0 24 24" style="enable-background:new 0 0 512 512" xml:space="preserve" class=""><g><g xmlns="http://www.w3.org/2000/svg"><path d="m22.5 15h-21c-.827 0-1.5-.673-1.5-1.5v-12c0-.827.673-1.5 1.5-1.5h21c.827 0 1.5.673 1.5 1.5v12c0 .827-.673 1.5-1.5 1.5zm-21-14c-.276 0-.5.224-.5.5v12c0 .276.224.5.5.5h21c.276 0 .5-.224.5-.5v-12c0-.276-.224-.5-.5-.5z" fill="#6b778c" data-original="#000000" style="" class=""/></g><g xmlns="http://www.w3.org/2000/svg"><path d="m23.5 18h-23c-.276 0-.5-.224-.5-.5s.224-.5.5-.5h23c.276 0 .5.224.5.5s-.224.5-.5.5z" fill="#6b778c" data-original="#000000" style="" class=""/></g><g xmlns="http://www.w3.org/2000/svg"><path d="m23.5 21h-23c-.276 0-.5-.224-.5-.5s.224-.5.5-.5h23c.276 0 .5.224.5.5s-.224.5-.5.5z" fill="#6b778c" data-original="#000000" style="" class=""/></g><g xmlns="http://www.w3.org/2000/svg"><path d="m23.5 24h-23c-.276 0-.5-.224-.5-.5s.224-.5.5-.5h23c.276 0 .5.224.5.5s-.224.5-.5.5z" fill="#6b778c" data-original="#000000" style="" class=""/></g></g></svg>
