<?xml version="1.0"?>
<svg xmlns="http://www.w3.org/2000/svg" xmlns:xlink="http://www.w3.org/1999/xlink" xmlns:svgjs="http://svgjs.com/svgjs" version="1.1" width="512" height="512" x="0" y="0" viewBox="0 0 512 512" style="enable-background:new 0 0 512 512" xml:space="preserve" class=""><g><g xmlns="http://www.w3.org/2000/svg" fill="#82b1ff"><path d="m32 0h448c17.671875 0 32 14.328125 32 32s-14.328125 32-32 32h-448c-17.671875 0-32-14.328125-32-32s14.328125-32 32-32zm0 0" fill="#6b778c" data-original="#82b1ff" style="" class=""/><path d="m32 128h448c17.671875 0 32 14.328125 32 32s-14.328125 32-32 32h-448c-17.671875 0-32-14.328125-32-32s14.328125-32 32-32zm0 0" fill="#6b778c" data-original="#82b1ff" style="" class=""/><path d="m32 256h448c17.671875 0 32 14.328125 32 32s-14.328125 32-32 32h-448c-17.671875 0-32-14.328125-32-32s14.328125-32 32-32zm0 0" fill="#6b778c" data-original="#82b1ff" style="" class=""/></g></g></svg>
